<mxfile host="drawio-plugin" modified="2025-10-31T15:04:46.238Z" agent="Mozilla/5.0 (Macintosh; Intel Mac OS X 10_15_7) AppleWebKit/537.36 (KHTML, like Gecko) Chrome/122.0.0.0 Safari/537.36" etag="g1UvF6xU1qcPfRZtXSdq" version="22.1.22" type="embed">
  <diagram name="Implementation Strategy" id="implementation-strategy">
    <mxGraphModel dx="2293" dy="886" grid="1" gridSize="10" guides="1" tooltips="1" connect="1" arrows="1" fold="1" page="1" pageScale="1" pageWidth="1169" pageHeight="827" math="0" shadow="0">
      <root>
        <mxCell id="0" />
        <mxCell id="1" parent="0" />
        <mxCell id="infrastructure" value="Infrastructure Layer" style="rounded=1;whiteSpace=wrap;html=1;fillColor=#e1d5e7;strokeColor=#9673a6;fontSize=14;fontStyle=1;verticalAlign=top;spacingTop=10;" parent="1" vertex="1">
          <mxGeometry x="80" y="690" width="1000" height="100" as="geometry" />
        </mxCell>
        <mxCell id="rest-db-email" value="REST APIs | Database (JPA) | Email Service" style="rounded=1;whiteSpace=wrap;html=1;fillColor=#d5e8d4;strokeColor=#82b366;" parent="1" vertex="1">
          <mxGeometry x="125" y="730" width="920" height="40" as="geometry" />
        </mxCell>
        <mxCell id="application" value="Application Layer" style="rounded=1;whiteSpace=wrap;html=1;fillColor=#dae8fc;strokeColor=#6c8ebf;fontSize=14;fontStyle=1;verticalAlign=top;spacingTop=10;" parent="1" vertex="1">
          <mxGeometry x="80" y="220" width="1000" height="100" as="geometry" />
        </mxCell>
        <mxCell id="use-cases" value="Use Cases | DTOs | Event Handlers" style="rounded=1;whiteSpace=wrap;html=1;fillColor=#cce5ff;strokeColor=#36393d;" parent="1" vertex="1">
          <mxGeometry x="120" y="260" width="920" height="40" as="geometry" />
        </mxCell>
        <mxCell id="9" style="edgeStyle=orthogonalEdgeStyle;rounded=0;orthogonalLoop=1;jettySize=auto;html=1;entryX=0.5;entryY=0;entryDx=0;entryDy=0;fillColor=#f8cecc;strokeColor=#b85450;" edge="1" parent="1" source="domain" target="infrastructure">
          <mxGeometry relative="1" as="geometry" />
        </mxCell>
        <mxCell id="domain" value="Domain Layer" style="rounded=1;whiteSpace=wrap;html=1;fillColor=#f8cecc;strokeColor=#b85450;fontSize=14;fontStyle=1;verticalAlign=top;spacingTop=10;" parent="1" vertex="1">
          <mxGeometry x="80" y="360" width="1000" height="290" as="geometry" />
        </mxCell>
        <mxCell id="citizen-context" value="Citizen Management" style="rounded=1;whiteSpace=wrap;html=1;fillColor=#ffcccc;strokeColor=#36393d;fontSize=12;fontStyle=1;verticalAlign=top;spacingTop=10;" parent="1" vertex="1">
          <mxGeometry x="120" y="400" width="300" height="220" as="geometry" />
        </mxCell>
        <mxCell id="citizen-aggregate" value="Citizen&#xa;(Aggregate)" style="rounded=1;whiteSpace=wrap;html=1;fillColor=#ffeb9c;strokeColor=#d6b656;" parent="1" vertex="1">
          <mxGeometry x="140" y="440" width="80" height="50" as="geometry" />
        </mxCell>
        <mxCell id="auth-entity" value="Authentication&#xa;(Entity)" style="rounded=1;whiteSpace=wrap;html=1;fillColor=#ffeb9c;strokeColor=#d6b656;" parent="1" vertex="1">
          <mxGeometry x="240" y="440" width="80" height="50" as="geometry" />
        </mxCell>
        <mxCell id="citizen-service" value="CitizenRegistrationService" style="rounded=1;whiteSpace=wrap;html=1;fillColor=#ccf5ff;strokeColor=#36393d;" parent="1" vertex="1">
          <mxGeometry x="140" y="510" width="180" height="40" as="geometry" />
        </mxCell>
        <mxCell id="citizen-repo" value="CitizenRepository" style="rounded=1;whiteSpace=wrap;html=1;fillColor=#f5f5f5;strokeColor=#666666;" parent="1" vertex="1">
          <mxGeometry x="140" y="570" width="180" height="40" as="geometry" />
        </mxCell>
        <mxCell id="voting-context" value="Voting Management" style="rounded=1;whiteSpace=wrap;html=1;fillColor=#ffcccc;strokeColor=#36393d;fontSize=12;fontStyle=1;verticalAlign=top;spacingTop=10;" parent="1" vertex="1">
          <mxGeometry x="440" y="400" width="300" height="220" as="geometry" />
        </mxCell>
        <mxCell id="voting-aggregate" value="Voting&#xa;(Aggregate)" style="rounded=1;whiteSpace=wrap;html=1;fillColor=#ffeb9c;strokeColor=#d6b656;" parent="1" vertex="1">
          <mxGeometry x="460" y="440" width="260" height="50" as="geometry" />
        </mxCell>
        <mxCell id="voting-service" value="VotingManagementService" style="rounded=1;whiteSpace=wrap;html=1;fillColor=#ccf5ff;strokeColor=#36393d;" parent="1" vertex="1">
          <mxGeometry x="460" y="510" width="180" height="40" as="geometry" />
        </mxCell>
        <mxCell id="voting-repo" value="VotingRepository" style="rounded=1;whiteSpace=wrap;html=1;fillColor=#f5f5f5;strokeColor=#666666;" parent="1" vertex="1">
          <mxGeometry x="460" y="570" width="180" height="40" as="geometry" />
        </mxCell>
        <mxCell id="vote-context" value="Vote Processing" style="rounded=1;whiteSpace=wrap;html=1;fillColor=#ffcccc;strokeColor=#36393d;fontSize=12;fontStyle=1;verticalAlign=top;spacingTop=10;" parent="1" vertex="1">
          <mxGeometry x="760" y="400" width="300" height="220" as="geometry" />
        </mxCell>
        <mxCell id="vote-aggregate" value="Vote&#xa;(Aggregate)" style="rounded=1;whiteSpace=wrap;html=1;fillColor=#ffeb9c;strokeColor=#d6b656;" parent="1" vertex="1">
          <mxGeometry x="780" y="440" width="80" height="50" as="geometry" />
        </mxCell>
        <mxCell id="result-aggregate" value="VotingResult&#xa;(Aggregate)" style="rounded=1;whiteSpace=wrap;html=1;fillColor=#ffeb9c;strokeColor=#d6b656;" parent="1" vertex="1">
          <mxGeometry x="880" y="440" width="80" height="50" as="geometry" />
        </mxCell>
        <mxCell id="vote-services" value="VoteProcessingService&#xa;ResultsCalculationService" style="rounded=1;whiteSpace=wrap;html=1;fillColor=#ccf5ff;strokeColor=#36393d;" parent="1" vertex="1">
          <mxGeometry x="780" y="510" width="180" height="40" as="geometry" />
        </mxCell>
        <mxCell id="vote-repos" value="VoteRepository&#xa;VotingResultRepository" style="rounded=1;whiteSpace=wrap;html=1;fillColor=#f5f5f5;strokeColor=#666666;" parent="1" vertex="1">
          <mxGeometry x="780" y="570" width="180" height="40" as="geometry" />
        </mxCell>
        <mxCell id="shared-kernel" value="Shared Kernel" style="rounded=1;whiteSpace=wrap;html=1;fillColor=#e1d5e7;strokeColor=#9673a6;fontSize=14;fontStyle=1;verticalAlign=top;spacingTop=10;" parent="1" vertex="1">
          <mxGeometry x="1180" y="466" width="280" height="80" as="geometry" />
        </mxCell>
        <mxCell id="shared-vos" value="CitizenId | VotingId | Email | TimeRange" style="rounded=1;whiteSpace=wrap;html=1;fillColor=#f3e5f5;strokeColor=#9673a6;" parent="1" vertex="1">
          <mxGeometry x="1190" y="500" width="260" height="30" as="geometry" />
        </mxCell>
        <mxCell id="app-to-domain" style="edgeStyle=orthogonalEdgeStyle;rounded=0;orthogonalLoop=1;jettySize=auto;html=1;exitX=0.5;exitY=1;entryX=0.5;entryY=0;strokeWidth=2;strokeColor=#6c8ebf;" parent="1" source="application" target="domain" edge="1">
          <mxGeometry relative="1" as="geometry" />
        </mxCell>
        <mxCell id="domain-to-shared" style="edgeStyle=orthogonalEdgeStyle;rounded=0;orthogonalLoop=1;jettySize=auto;html=1;exitX=1;exitY=0.5;entryX=0;entryY=0.5;strokeWidth=2;strokeColor=#b85450;exitDx=0;exitDy=0;entryDx=0;entryDy=0;" parent="1" source="domain" target="shared-kernel" edge="1">
          <mxGeometry relative="1" as="geometry" />
        </mxCell>
        <mxCell id="vote-to-citizen" style="edgeStyle=orthogonalEdgeStyle;rounded=0;orthogonalLoop=1;jettySize=auto;html=1;exitX=0;exitY=0.5;entryX=1;entryY=0.5;strokeWidth=2;strokeColor=#ff6666;dashed=1;" parent="1" source="vote-aggregate" target="citizen-aggregate" edge="1">
          <mxGeometry relative="1" as="geometry" />
        </mxCell>
        <mxCell id="vote-to-voting" style="edgeStyle=orthogonalEdgeStyle;rounded=0;orthogonalLoop=1;jettySize=auto;html=1;exitX=0;exitY=0.5;entryX=1;entryY=0.5;strokeWidth=2;strokeColor=#ff6666;dashed=1;" parent="1" source="vote-aggregate" target="voting-aggregate" edge="1">
          <mxGeometry relative="1" as="geometry" />
        </mxCell>
        <mxCell id="hexagonal-label" value="Hexagonal Architecture&#xa;(Ports &amp; Adapters)" style="text;html=1;align=center;verticalAlign=middle;resizable=0;points=[];autosize=1;strokeColor=none;fillColor=none;fontSize=12;fontStyle=1;" parent="1" vertex="1">
          <mxGeometry x="20" y="20" width="140" height="40" as="geometry" />
        </mxCell>
        <mxCell id="legend" value="&lt;font style=&quot;font-size: 18px;&quot;&gt;→ Dependencies&lt;br&gt;⇢ Cross-Context References&lt;/font&gt;" style="text;html=1;align=left;verticalAlign=middle;resizable=0;points=[];autosize=1;strokeColor=none;fillColor=none;fontSize=10;" parent="1" vertex="1">
          <mxGeometry x="900" y="10" width="260" height="60" as="geometry" />
        </mxCell>
      </root>
    </mxGraphModel>
  </diagram>
</mxfile>
